<svg viewBox="0 0 574 374.8">
<g>
	<path d="M0,0v271.8h473V0H0z M72.8,241.1c6.4-11.2,5.4-25.6-3.6-35.8c-9.9-11.1-26-13.4-38.4-6.2V72.7
		c12.4,7.2,28.5,4.9,38.4-6.2c9-10.2,10.1-24.6,3.6-35.8h131.1C171.7,47.5,149,88.3,149,135.9c0,47.7,22.7,88.4,54.8,105.2H72.8z
		 M244.5,190.7V209H227v-17c-12-0.5-23.6-3.8-30.4-7.7l5.4-21c7.5,4.1,18.1,7.9,29.7,7.9c10.2,0,17.2-3.9,17.2-11.1
		c0-6.8-5.7-11.1-19-15.6c-19.2-6.5-32.2-15.4-32.2-32.8c0-15.8,11.1-28.1,30.2-31.9v-17h17.5v15.8c12,0.5,20,3,26,5.9l-5.2,20.2
		c-4.7-2-12.9-6.1-25.8-6.1c-11.6,0-15.4,5-15.4,10c0,5.9,6.3,9.7,21.5,15.4c21.3,7.5,29.9,17.4,29.9,33.5
		C276.4,173.5,265.1,187.1,244.5,190.7z M442.2,199.1c-12.4-7.2-28.5-4.9-38.4,6.2c-9,10.2-10.1,24.6-3.6,35.8H269.1
		c32.1-16.7,54.8-57.5,54.8-105.2c0-47.6-22.7-88.4-54.8-105.2h131.1c-6.4,11.1-5.4,25.6,3.6,35.8c9.9,11.1,26,13.4,38.4,6.2V199.1z
		"/>
	<polygon points="492.3,52 492.3,82.7 492.3,293.1 80.8,293.1 50.1,293.1 50.1,323.8 523,323.8 523,52 	"/>
	<polygon points="543.3,103 543.3,133.7 543.3,344.1 131.8,344.1 101.1,344.1 101.1,374.8 574,374.8 574,103 	"/>
</g>
</svg>
