<svg viewBox="0 0 149.8 130.7">
<path d="M135.8,85.2l-21.1,4.8c-1.4,2.3-2.7,4.6-4.1,6.8l21.7-5l9.9,26l-31.1,6.5l-2-25.2c-1.1,1.8-2.3,3.6-3.4,5.3l1.6,19.8
	L61.7,113l12.8-21.2l7.3,1.3c-1.3-2.1-2.5-4.2-3.8-6.5L74.2,86l-36.4,6.6L0,130.1L58.3,118l50.8,12.7l40.7-8.5L135.8,85.2z
	 M57.7,112.3l-40.1,8.3l22.9-22.7l29.2-5.3L57.7,112.3z"/>
<path d="M97.5,0C79.4,0,64.7,14.7,64.7,32.9c0,1.6,0.1,3.2,0.3,4.7c3.6,24,22,53.5,32.5,68.4c9.6-14.5,28.7-44,32.4-67.7
	c0-0.1,0.1-0.7,0.1-0.7c0.2-1.5,0.3-3.1,0.3-4.7C130.4,14.7,115.7,0,97.5,0z M97.5,55c-12.2,0-22.1-9.9-22.1-22.1
	c0-12.2,9.9-22.1,22.1-22.1c12.2,0,22.2,9.9,22.2,22.1C119.7,45.1,109.7,55,97.5,55z"/>
</svg>
