<svg viewBox="0 0 321.4 208.4">
    <g>
        <path d="M300.1,187.4c-43.4-23.8-92.4-11.3-129.1,1.5c-22.6,7.9-46.2,17.1-70.1,19.2c-26.9,2.4-78.9-11.3-83.9-50.9
			c50,34.7,80.6,25,124,12.3c17.6-5.2,36.8-13.8,54.9-17C225.7,147.3,270.1,145.7,300.1,187.4z"/>
        <g>
            <path d="M136.5,115.3c20.1-5.4,42-14.6,62.5-17.8c-3.1-6.2-4.8-10.6-7.5-14.3c-17.3-24.3-35.2-48.3-52.3-72.8
				c-8.3-12-17.6-13-29.2-5.9C86.4,18.8,2.2,61.9,7,74.1c3.8,13.2,78.8-25.5,97-34c9.9-4.6,16.5-2.4,21.1,7.5
				c4,8.7,8.7,17.1,13.4,26.3c-25.2,17.6-49.2,34.2-73.2,50.9c0.1,0.3,0.4,1.1,0.7,2.1C88.9,128.3,110.7,122.2,136.5,115.3z"/>
            <path d="M203.7,108.4c-0.1,0-0.3,0.1-0.4,0.1c-20.5,3.2-42.4,12.4-62.5,17.8c-25.8,6.9-47.7,13-70.6,11.6
				C49,136.5,26.9,128.7,0,109.1c4.6,45.2,63.4,62.1,94.1,60.1c27.3-1.8,54.4-11.7,80.3-20.1c42.2-13.6,98.2-26.6,147,1.6
				C288.3,102.5,237.8,103.2,203.7,108.4z"/>
        </g>
        <path d="M211.2,50.8c-0.3-19.6,15.3-35.7,34.5-35.7c19.5,0,34.9,15.3,35.2,35c0.3,19.5-15.2,35.5-34.5,35.6
			C226.8,85.8,211.4,70.6,211.2,50.8z"/>
    </g>
</svg>
