<svg viewBox="0 0 710.4 567">
<g>
	<path d="M451.8,418.1l29.7-29.7c8.2-8.2,8.3-21.6-0.7-28.9c-72.9-59.1-178.1-59.1-251,0c-9,7.3-8.9,20.7-0.7,28.9
		l29.7,29.7c8.2,8.2,21.4,8,31,1.4c39.3-27.1,91.9-27.1,131.2,0C430.3,426.1,443.6,426.3,451.8,418.1z M563.2,306.7l29.7-29.7
		c8.2-8.2,8.2-21.6-0.4-29.3c-134.9-120-339.6-120-474.5,0c-8.7,7.7-8.6,21.1-0.4,29.3l29.7,29.7c8.2,8.2,21.5,8.1,30.3,0.6
		c101.9-87.4,253.5-87.4,355.4,0C541.7,314.8,555,314.9,563.2,306.7z M674.6,195.3l29.7-29.7c8.2-8.2,8.2-21.5-0.3-29.4
		C608.7,48.2,485.7,0,355.2,0C224.8,0,101.7,48.2,6.4,136.2c-8.5,7.9-8.5,21.2-0.3,29.4l29.7,29.7c8.2,8.2,21.5,8.2,30.1,0.4
		c163.7-148.6,415-148.6,578.6,0C653.1,203.5,666.4,203.5,674.6,195.3z M407.5,514.7c0,28.9-23.4,52.3-52.3,52.3
		c-28.9,0-52.3-23.4-52.3-52.3c0-28.9,23.4-52.3,52.3-52.3C384.1,462.4,407.5,485.8,407.5,514.7z"/>
</g>
</svg>
